<svg width="36" height="36" viewBox="0 0 36 36" fill="none" xmlns="http://www.w3.org/2000/svg">
<circle cx="18" cy="18" r="18" fill="#0B0B0B"/>
<path d="M27.7333 0.0296901C27.7562 0.0526042 27.7447 0.104161 27.7104 0.149989C27.6588 0.207274 27.6244 0.207274 27.5672 0.161446C27.5156 0.121347 27.4583 0.121347 27.3839 0.161446C27.3094 0.201546 27.2578 0.201546 27.212 0.155718C27.1032 0.0468757 26.9027 0.0583328 26.874 0.172903C26.8454 0.276017 26.6449 0.287474 26.1694 0.207274C26.0892 0.195817 25.9804 0.22446 25.9231 0.270288C25.8314 0.350488 25.8142 0.350488 25.7684 0.281745C25.7226 0.207274 25.6939 0.213003 25.5507 0.293202C25.4132 0.37913 25.356 0.37913 25.2013 0.321845C25.0753 0.276017 25.0065 0.270288 24.9779 0.316116C24.8919 0.447873 24.2217 0.745756 24.1358 0.694199C24.1071 0.671285 24.0269 0.6541 23.9639 0.659828C23.9009 0.665557 23.7921 0.671285 23.7176 0.677014C23.6489 0.677014 23.4885 0.785856 23.3624 0.917612C23.2421 1.04937 23.1161 1.1353 23.0875 1.11811C23.0244 1.07801 22.8297 1.23268 22.549 1.52484C22.3886 1.69669 22.3657 1.70242 22.2511 1.62795C22.1021 1.51911 22.0449 1.51911 22.0449 1.62222C22.0449 1.66232 21.9704 1.71388 21.873 1.73106C21.7527 1.75971 21.7012 1.7998 21.7012 1.88C21.7012 2.03467 21.5809 2.09769 21.5064 1.98885C21.4606 1.90865 21.4376 1.91438 21.346 2.02895C21.2887 2.10342 21.2429 2.18934 21.2429 2.22372C21.2429 2.25809 21.22 2.28673 21.1856 2.28673C21.1569 2.28673 21.1283 2.34402 21.1283 2.41276C21.1226 2.50441 21.0424 2.59607 20.8705 2.70491C20.7273 2.79657 20.6242 2.89395 20.6471 2.9226C20.6643 2.95124 20.6528 2.97415 20.6185 2.97415C20.5211 2.97415 20.2747 3.27204 20.3091 3.35796C20.3435 3.43816 20.1258 3.67303 19.9597 3.73605C19.9081 3.75896 19.8508 3.85062 19.8337 3.948C19.8107 4.03966 19.7649 4.11986 19.7305 4.11986C19.6332 4.11986 19.4097 4.3891 19.4097 4.5094C19.4097 4.56095 19.3066 4.71563 19.1863 4.84738C18.9973 5.06507 18.9686 5.12808 18.9801 5.35722C18.9858 5.5749 18.9572 5.6551 18.8426 5.76967C18.7624 5.8556 18.6994 5.9358 18.6994 5.95299C18.7223 6.02746 18.5333 6.41127 18.4703 6.41127C18.4359 6.41127 18.3958 6.48001 18.3901 6.56594C18.3843 6.65187 18.35 6.74925 18.3099 6.78362C18.264 6.82372 18.2583 6.81799 18.2869 6.76644C18.3099 6.73207 18.3041 6.6977 18.2755 6.6977C18.2067 6.6977 18.1323 6.96694 18.1781 7.04141C18.2125 7.09869 18.0349 7.51115 17.9432 7.56843C17.9089 7.59135 17.8344 7.71164 17.7771 7.83767C17.7198 7.9637 17.6568 8.05536 17.6339 8.0439C17.611 8.02671 17.548 8.06681 17.4907 8.12983C17.3761 8.25585 17.2787 8.69122 17.3532 8.73705C17.3818 8.75424 17.3647 8.80579 17.3131 8.85735C17.2558 8.91464 17.2444 8.96619 17.2845 9.00629C17.3188 9.04066 17.3188 9.08649 17.273 9.13805C17.0897 9.34427 17.0668 9.39583 17.0782 9.60779C17.084 9.73381 17.0668 9.8312 17.0324 9.82547C17.0038 9.81974 16.9751 9.84266 16.9751 9.8713C16.9751 9.89994 16.9178 9.94004 16.8548 9.96868C16.7574 10.0031 16.7402 10.0432 16.7574 10.1577C16.7746 10.2437 16.746 10.3697 16.6944 10.4499C16.6429 10.5301 16.6199 10.5931 16.6429 10.5931C16.6715 10.5931 16.6429 10.6217 16.5913 10.6561C16.534 10.6848 16.4882 10.7592 16.4882 10.8108C16.4882 10.8681 16.4538 10.9597 16.4137 11.0227C16.3736 11.0857 16.3335 11.229 16.3278 11.3378C16.3163 11.4466 16.2648 11.5899 16.2132 11.6529C16.1559 11.7159 16.0757 11.8935 16.0356 12.0539C15.9955 12.2085 15.9325 12.3804 15.8924 12.4262C15.8466 12.4721 15.795 12.5752 15.7721 12.6554C15.7492 12.7356 15.6747 12.8444 15.606 12.896C15.5201 12.9704 15.5029 13.0105 15.5544 13.0449C15.6977 13.1366 15.5659 13.7151 15.3539 13.8985C15.268 13.9729 15.2222 14.0531 15.2451 14.1104C15.2623 14.1562 15.2566 14.2135 15.2279 14.2307C15.1993 14.2479 15.1935 14.3052 15.2107 14.351C15.2279 14.4026 15.1935 14.4713 15.1191 14.5286C15.0274 14.5916 14.993 14.6661 15.0045 14.7978C15.016 14.8952 14.9873 15.0384 14.9415 15.1186C14.8957 15.2046 14.8899 15.2618 14.9243 15.2733C15.016 15.3077 14.9358 15.5769 14.8155 15.6399C14.7524 15.6743 14.7181 15.7144 14.7353 15.7316C14.7524 15.7488 14.7295 15.8003 14.6837 15.8462C14.592 15.9378 14.5634 16.2071 14.6493 16.2071C14.7467 16.2071 14.7524 16.419 14.6608 16.4763C14.6092 16.5107 14.5634 16.5909 14.5577 16.6539C14.5519 16.757 14.4603 16.8945 14.2713 17.095C14.1911 17.1809 14.1109 17.4616 14.1338 17.5704C14.1395 17.6163 14.1051 17.7079 14.0593 17.7824C14.002 17.8741 13.9734 18.0115 13.9848 18.1662C14.002 18.3896 13.9161 18.5958 13.8359 18.5214C13.8187 18.5042 13.7901 18.5443 13.7671 18.613C13.7385 18.7104 13.7099 18.7219 13.6468 18.6703C13.5724 18.6016 13.5666 18.2235 13.6411 17.8683C13.6583 17.7881 13.6869 17.6048 13.7041 17.4559C13.7328 17.2325 13.7213 17.1809 13.6297 17.1523C13.4922 17.1122 13.4922 16.7914 13.6354 16.608C13.727 16.4935 13.7328 16.4591 13.664 16.4075C13.6239 16.3789 13.5666 16.2815 13.5495 16.1956C13.5151 16.0753 13.5323 16.0352 13.6182 16.0066C13.7213 15.9779 13.727 15.9321 13.7041 15.5024C13.6869 15.2332 13.6468 15.0155 13.6067 14.9926C13.5552 14.9582 13.5666 14.9296 13.6411 14.8838C13.6927 14.8551 13.7385 14.7806 13.7385 14.7234C13.7385 14.6603 13.7786 14.6031 13.8244 14.5801C13.9218 14.5458 13.9505 14.0875 13.8531 14.0875C13.7614 14.0875 13.7843 13.8584 13.8817 13.824C13.9963 13.7782 13.9906 13.6292 13.8588 13.4631C13.7671 13.3428 13.7614 13.3084 13.8359 13.1652C13.9046 13.022 13.9046 12.9876 13.8187 12.8559C13.727 12.7184 13.7729 12.6554 13.8874 12.7642C13.9218 12.7986 13.939 12.6955 13.9333 12.4835C13.9333 12.2945 13.9505 12.157 13.9791 12.1742C14.0421 12.2143 14.0364 11.9794 13.9676 11.8476C13.9333 11.7904 13.8703 11.7388 13.8244 11.7388C13.7786 11.7388 13.7385 11.7044 13.7385 11.6643C13.7385 11.5326 13.8072 11.5097 13.8874 11.6128C13.9562 11.7044 13.9619 11.7044 14.002 11.6013C14.0249 11.544 14.0135 11.481 13.9734 11.4581C13.8989 11.4123 13.9275 11.143 14.0192 11.0285C14.0994 10.9311 14.0593 10.6676 13.939 10.5358C13.8302 10.4155 13.8645 10.3926 14.0822 10.4155C14.151 10.4212 14.151 10.4155 14.0937 10.3754C14.0536 10.3468 14.0364 10.2838 14.0593 10.2322C14.0765 10.1806 14.0708 10.1348 14.0364 10.1348C13.9676 10.1348 13.9104 9.79683 13.9791 9.75673C14.002 9.73954 14.0249 9.76246 14.0307 9.80256C14.0307 9.84266 14.0536 9.82547 14.0765 9.76246C14.0994 9.69944 14.1051 9.56769 14.0765 9.46457C14.0536 9.36146 14.0593 9.27553 14.0879 9.27553C14.151 9.27553 14.1567 9.06358 14.0937 9.02348C14.0364 8.98911 14.0478 8.2444 14.1109 8.10691C14.1395 8.03817 14.128 7.98661 14.0765 7.95797C14.0135 7.91787 14.0135 7.8835 14.0765 7.77466C14.128 7.67155 14.128 7.59707 14.0879 7.47678C14.0421 7.36793 14.0421 7.28773 14.0879 7.20181C14.1338 7.11588 14.1338 7.09296 14.0879 7.12161C14.0478 7.14452 14.0249 7.11588 14.0249 7.04714C14.0249 6.97266 13.9848 6.92684 13.9333 6.92684C13.8531 6.92684 13.8531 6.90965 13.9104 6.84091C14.0192 6.70915 14.002 6.23368 13.8932 6.15349C13.8072 6.09047 13.8072 6.07901 13.8989 5.99309C13.9619 5.92434 13.9676 5.8957 13.9218 5.8957C13.8817 5.8957 13.8645 5.86706 13.8817 5.83842C13.8989 5.80405 13.8989 5.78113 13.8703 5.78113C13.8473 5.78113 13.8302 5.66083 13.8302 5.50616C13.8359 5.33431 13.8015 5.17391 13.7328 5.05934C13.6698 4.96195 13.6411 4.83592 13.664 4.76145C13.6812 4.68698 13.6698 4.63543 13.6297 4.63543C13.5953 4.63543 13.5666 4.58387 13.5666 4.52658C13.5666 4.46357 13.5437 4.39483 13.5094 4.37764C13.475 4.36046 13.4521 4.30317 13.4521 4.25734C13.4521 4.13132 13.3146 4.01674 13.137 3.98237C12.9365 3.948 12.8563 3.99383 12.9365 4.09122C13.011 4.18287 12.9193 4.26307 12.8105 4.20006C12.7761 4.17714 12.7646 4.18287 12.7876 4.22297C12.8047 4.25734 12.799 4.29744 12.7646 4.32036C12.736 4.33754 12.7074 4.41774 12.7074 4.49221C12.7074 4.56668 12.6787 4.63543 12.6386 4.64688C12.5985 4.66407 12.5641 4.73281 12.5584 4.81301C12.5412 5.01351 12.4725 5.20828 12.4152 5.20828C12.3923 5.20828 12.3751 5.35722 12.3751 5.54626C12.3751 5.75822 12.3465 5.92434 12.2949 6.00454C12.2319 6.0962 12.2204 6.18786 12.2491 6.36544C12.272 6.49147 12.272 6.66905 12.2491 6.75498C12.2262 6.84091 12.2262 6.94402 12.2548 6.98985C12.2835 7.03568 12.272 7.08151 12.2319 7.11015C12.1975 7.13306 12.1689 7.26482 12.1803 7.41949C12.1861 7.61426 12.1632 7.70592 12.0944 7.75747C11.997 7.83194 12.0314 8.04963 12.1345 7.98661C12.2147 7.93506 12.2033 8.01526 12.1059 8.18711C11.9856 8.39907 12.0028 8.5251 12.1632 8.59957L12.3064 8.66258L12.1803 8.80006C12.0944 8.89172 12.0543 9.01775 12.0429 9.2297C12.0314 9.39583 12.0085 9.5906 11.9913 9.65934C11.9741 9.72809 11.9913 9.85411 12.0314 9.94577C12.0658 10.0317 12.0887 10.1405 12.083 10.1864C12.0772 10.2265 12.0944 10.2437 12.1288 10.2207C12.1632 10.2036 12.1918 10.215 12.1918 10.2494C12.1918 10.2838 12.1345 10.3353 12.0658 10.364C11.9913 10.3926 11.9684 10.4155 12.0085 10.4155C12.06 10.4212 12.0715 10.4613 12.0486 10.5415C12.0257 10.6103 11.997 10.7478 11.9913 10.8451C11.9798 10.9425 11.9569 11.0972 11.9397 11.1946C11.9226 11.2862 11.8882 11.6242 11.871 11.9393C11.8481 12.2544 11.808 12.5465 11.7736 12.5866C11.7278 12.6439 11.7335 12.6783 11.8023 12.7184C11.8939 12.7699 11.8939 12.8215 11.8252 13.3313C11.8137 13.4344 11.7564 13.5547 11.7049 13.5948C11.6189 13.6579 11.6189 13.6693 11.6991 13.7381C11.7507 13.7782 11.7736 13.8412 11.7507 13.8813C11.6877 13.9787 11.6361 14.4885 11.6877 14.4885C11.7106 14.4885 11.7335 14.5286 11.7335 14.5801C11.7335 14.626 11.7049 14.6489 11.6762 14.6317C11.5903 14.5801 11.5387 14.7635 11.6132 14.8551C11.659 14.9067 11.659 14.9468 11.6247 14.9697C11.596 14.9926 11.5731 15.1358 11.5846 15.2962C11.5903 15.4681 11.5674 15.6056 11.5216 15.6457C11.4356 15.7144 11.4471 16.3273 11.533 16.3961C11.5674 16.4247 11.5502 16.4706 11.4815 16.5221C11.3955 16.5909 11.3783 16.6481 11.4127 16.8486C11.4356 16.9861 11.4585 17.1351 11.4585 17.1809C11.4643 17.2267 11.4929 17.284 11.5273 17.3069C11.5617 17.3298 11.5502 17.3585 11.4872 17.3871C11.3841 17.4215 11.3497 17.6392 11.4471 17.6392C11.4757 17.6392 11.4872 17.6793 11.47 17.7251C11.4471 17.7709 11.4643 17.811 11.4986 17.811C11.533 17.811 11.5617 17.834 11.5617 17.8683C11.5617 17.897 11.5216 17.9256 11.4757 17.9256C11.3841 17.9256 11.2523 18.1318 11.3039 18.2063C11.3554 18.2922 11.4299 18.9567 11.3898 18.9567C11.3669 18.9567 11.3211 19.0255 11.281 19.1114C11.2237 19.2374 11.2237 19.2718 11.3039 19.3176C11.3898 19.3635 11.3898 19.3749 11.2924 19.4551C11.2294 19.5067 11.2122 19.5468 11.2523 19.564C11.2867 19.5812 11.3039 19.6556 11.2867 19.7301C11.2752 19.8103 11.2867 19.8733 11.3211 19.8733C11.3612 19.8733 11.3554 19.9535 11.3039 20.1082C11.2351 20.2972 11.2351 20.366 11.2867 20.429C11.3325 20.4863 11.3325 20.5264 11.2981 20.5493C11.195 20.618 11.1664 20.7784 11.2179 20.9617C11.2638 21.1336 11.2351 21.231 11.0633 21.4716C11.0404 21.5059 10.5305 21.6033 10.3186 21.6091C10.2155 21.6148 10.1295 21.6377 10.1295 21.6606C10.1295 21.6893 10.0837 21.7064 10.0264 21.7064C9.96913 21.7064 9.89466 21.7351 9.86028 21.7694C9.82591 21.8038 9.65406 21.8382 9.47074 21.8496C9.2817 21.8611 9.11558 21.9012 9.08693 21.947C9.05256 21.9986 9.04683 21.9757 9.06975 21.8897C9.10985 21.758 9.10412 21.758 8.97809 21.8611C8.90935 21.9184 8.80051 22.01 8.74322 22.0673C8.66302 22.1418 8.58282 22.159 8.46825 22.1361C8.34795 22.1074 8.29067 22.1246 8.25057 22.1991C8.19901 22.2907 8.1761 22.2965 7.96987 22.2163C7.76937 22.1361 7.74073 22.1361 7.64907 22.2277C7.54596 22.3251 7.32255 22.3308 6.77261 22.2449C6.62367 22.222 6.52055 22.2335 6.49764 22.2736C6.43462 22.3709 6.30287 22.348 6.31433 22.2449C6.32005 22.1819 6.26277 22.1475 6.13674 22.1303C6.0279 22.1189 5.9477 22.1361 5.9477 22.1704C5.9477 22.1991 5.91906 22.2105 5.89041 22.1934C5.85604 22.1704 5.75293 22.1704 5.66127 22.1934C5.54097 22.222 5.5066 22.2564 5.52952 22.3194C5.55816 22.3939 5.5467 22.3996 5.43786 22.3423C5.32902 22.285 5.28892 22.2965 5.13998 22.4511C4.96812 22.623 4.87646 22.6746 4.94521 22.5657C5.00249 22.4741 4.88219 22.497 4.80199 22.5944C4.76189 22.6402 4.71034 22.6688 4.68742 22.6516C4.59004 22.5886 4.42964 22.8751 4.41818 23.1271C4.41245 23.2761 4.37235 23.4193 4.33225 23.4536C4.28643 23.4823 4.23487 23.5568 4.21196 23.6083C4.19477 23.6656 4.13748 23.7114 4.08593 23.7114C4.0401 23.7114 4 23.7343 4 23.7687C4 23.7973 4.04583 23.826 4.10884 23.826C4.24633 23.826 4.401 24.0609 4.3609 24.2155C4.34371 24.2957 4.37235 24.353 4.44683 24.3931C4.50984 24.4275 4.57858 24.5421 4.59577 24.6624C4.63014 24.8457 4.65305 24.8686 4.77908 24.8399C4.89938 24.817 4.91656 24.8342 4.91656 24.9774C4.91656 25.0977 4.95666 25.1607 5.07696 25.2238C5.16289 25.2696 5.27746 25.304 5.31756 25.304C5.51233 25.2925 5.60399 25.3211 5.5868 25.3842C5.58107 25.43 5.6269 25.4529 5.70137 25.4414C5.77584 25.43 5.83313 25.4529 5.83313 25.4873C5.83313 25.5617 6.068 25.5044 6.12528 25.4185C6.14247 25.3899 6.17111 25.367 6.18257 25.3727C6.19403 25.3784 6.24558 25.367 6.29141 25.3555C6.49764 25.2868 7.05331 25.2066 7.09341 25.2295C7.12205 25.2467 7.16215 25.2352 7.17933 25.2008C7.20225 25.1665 7.26526 25.155 7.32255 25.1722C7.37983 25.1894 7.52877 25.1837 7.6548 25.155C7.80374 25.1206 7.90686 25.1206 7.94123 25.155C7.98133 25.1951 8.04434 25.1722 8.136 25.0863C8.22765 25.0003 8.31931 24.9717 8.43961 24.9889C8.53127 25.0003 8.69166 24.9774 8.79478 24.9316C8.95518 24.8686 9.001 24.8686 9.11558 24.9373C9.21869 25.0003 9.29889 25.0061 9.54522 24.9545C9.74571 24.9144 9.83737 24.8686 9.82018 24.817C9.79727 24.7712 9.84883 24.7483 9.98058 24.754C10.0837 24.7597 10.2326 24.7196 10.3071 24.6681C10.3816 24.6108 10.5363 24.5707 10.6451 24.5707C10.7597 24.5707 10.88 24.5421 10.9201 24.502C10.9659 24.4561 11.0003 24.479 11.0461 24.5993C11.0805 24.691 11.0919 24.7998 11.0805 24.8399C11.0633 24.8858 11.0862 24.9316 11.132 24.9488C11.2065 24.9774 11.2065 25.0061 11.1263 25.1493C11.069 25.2639 11.0633 25.3154 11.1091 25.3154C11.1549 25.3154 11.1435 25.3555 11.0862 25.4185C10.9773 25.5388 10.9602 25.7164 11.0518 25.7164C11.0976 25.7164 11.1091 25.8252 11.0805 26.0888C11.0575 26.3351 11.0633 26.4611 11.1034 26.4611C11.1377 26.4611 11.1549 26.5585 11.1492 26.7017C11.132 26.9022 11.1091 26.948 11.0174 26.948C10.9258 26.948 10.9086 26.9824 10.9201 27.1199C10.9602 27.5209 10.9372 28.1854 10.88 28.2541C10.8399 28.3057 10.8399 28.3515 10.88 28.3916C10.9201 28.4317 10.9086 28.4833 10.8399 28.552C10.7654 28.6265 10.7367 28.7525 10.731 29.0332C10.7253 29.2394 10.6909 29.4743 10.6451 29.5545C10.605 29.6347 10.5592 29.9097 10.5477 30.1732C10.5305 30.5742 10.542 30.6429 10.6222 30.6429C10.7081 30.6429 10.7081 30.6544 10.6222 30.7862C10.5706 30.8664 10.542 30.9924 10.5534 31.0726C10.5706 31.1757 10.5477 31.233 10.4675 31.2731C10.3587 31.3361 10.3071 31.6168 10.4102 31.6168C10.4847 31.6168 10.5191 32.0808 10.4446 32.1553C10.3759 32.2297 10.3759 32.5906 10.4389 32.6995C10.4847 32.7682 10.4446 33.1749 10.3759 33.3869C10.3529 33.4671 10.3587 33.4671 10.4102 33.3926C10.4618 33.3239 10.4732 33.3353 10.4732 33.4614C10.4732 33.5473 10.5191 33.639 10.5706 33.6733C10.6394 33.7077 10.6737 33.8108 10.6795 34.0342C10.6966 34.418 10.6966 34.4123 10.7597 34.3092C10.8055 34.2347 10.8169 34.2405 10.8169 34.3207C10.8169 34.3779 10.857 34.4238 10.9086 34.4238C10.9716 34.4238 10.9888 34.4524 10.9659 34.5154C10.9201 34.6357 11.0289 34.7732 11.1377 34.7274C11.2351 34.693 11.4013 34.8133 11.3554 34.8878C11.3382 34.9164 11.3497 34.9393 11.3841 34.9393C11.4127 34.9393 11.5158 35.0081 11.6132 35.0883C11.7736 35.2258 11.8252 35.2086 11.7965 35.0367C11.7965 35.0138 11.8366 34.9966 11.8882 34.9966C11.9397 34.9966 12.0314 34.9565 12.0887 34.905C12.1975 34.8018 12.5183 34.7503 12.5641 34.8305C12.6214 34.9221 12.7704 34.8076 12.8506 34.6128C12.9021 34.4925 12.9594 34.4295 12.9995 34.4581C13.0396 34.4811 13.0511 34.4581 13.0282 34.3779C13.0052 34.3149 13.0167 34.2462 13.0511 34.2233C13.0797 34.2061 13.1084 34.1259 13.1084 34.0457C13.1084 33.9655 13.1714 33.8452 13.2516 33.7707C13.3318 33.6962 13.3948 33.616 13.3948 33.5931C13.3948 33.5702 13.4406 33.5129 13.4979 33.4728C13.5609 33.4213 13.5724 33.3984 13.5208 33.3926C13.4807 33.3926 13.4635 33.364 13.4807 33.3353C13.5036 33.301 13.4922 33.2437 13.4635 33.2036C13.4349 33.1635 13.3948 33.0031 13.3719 32.8484C13.3432 32.6193 13.3604 32.5162 13.4521 32.3386C13.5208 32.2183 13.5437 32.1381 13.5151 32.161C13.4807 32.1782 13.4521 32.1553 13.4521 32.1094C13.4521 32.0636 13.4922 32.0006 13.5495 31.972C13.6297 31.9204 13.6297 31.9147 13.5208 31.8803C13.3833 31.8345 13.3604 31.76 13.4578 31.697C13.4979 31.6741 13.5094 31.5652 13.4864 31.4106C13.4635 31.2387 13.4807 31.1413 13.5323 31.084C13.5896 31.0325 13.5953 30.9752 13.5552 30.9122C13.5265 30.8606 13.5208 30.8148 13.5437 30.8148C13.5609 30.8148 13.5495 30.7747 13.5094 30.7289C13.4693 30.683 13.4635 30.6429 13.4864 30.6429C13.5151 30.6429 13.5437 30.5112 13.5495 30.3508C13.5495 30.1789 13.5838 30.0357 13.6297 30.0128C13.6698 29.9842 13.7041 29.8524 13.7099 29.7149C13.7099 29.5774 13.727 29.4399 13.7442 29.4113C13.7614 29.3769 13.7843 29.1993 13.7901 29.0103C13.8015 28.8213 13.8302 28.6494 13.8645 28.6322C13.8932 28.615 13.9275 28.4604 13.939 28.3C13.9447 28.1338 13.9791 27.9734 14.0135 27.9391C14.0478 27.9047 14.0593 27.8417 14.0421 27.7959C14.0249 27.75 14.0364 27.6526 14.0765 27.5724C14.1109 27.498 14.1681 27.3719 14.2025 27.2975C14.2369 27.223 14.2541 27.0798 14.2426 26.9824C14.2254 26.885 14.2369 26.8048 14.2655 26.8048C14.3514 26.8048 14.4374 26.5069 14.3686 26.4611C14.3285 26.4325 14.3171 26.3465 14.34 26.2148C14.3744 26.0429 14.3973 26.0143 14.4775 26.0601C14.6207 26.1346 14.6894 25.9742 14.678 25.6305C14.6665 25.4243 14.6952 25.2925 14.7811 25.155C14.8441 25.0519 14.9014 24.8972 14.9071 24.8113C14.9529 24.3416 15.0217 24.1926 15.1878 24.2213C15.2508 24.2327 15.2336 24.1411 15.1592 24.0609C15.0962 23.9978 15.1019 23.9921 15.1649 24.0265C15.2222 24.0609 15.2336 24.0494 15.1993 23.9921C15.1133 23.8661 15.1191 23.6599 15.1993 23.614C15.2394 23.5854 15.2852 23.5396 15.2967 23.5109C15.3081 23.4766 15.331 23.4594 15.3482 23.4651C15.3826 23.4766 15.4513 23.2589 15.48 23.0526C15.4857 23.0183 15.5201 23.0011 15.5602 23.0068C15.5945 23.0183 15.6117 22.9896 15.5945 22.9438C15.5602 22.8579 15.9383 22.5944 16.0242 22.6459C16.0528 22.6688 16.1158 22.6402 16.1617 22.5944C16.2132 22.5485 16.2991 22.5084 16.3564 22.5084C16.4882 22.5084 17.0725 22.2163 17.1355 22.1246C17.1642 22.0788 17.2501 22.0616 17.3475 22.0788C17.4792 22.1017 17.5079 22.0902 17.485 22.0215C17.4563 21.9585 17.4735 21.947 17.5422 21.9699C17.611 21.9986 17.6454 21.9585 17.6683 21.8267C17.7084 21.6492 17.7084 21.6492 17.8516 21.7408C17.9662 21.8153 18.0005 21.821 18.0406 21.758C18.0635 21.7179 18.0693 21.6606 18.0521 21.6262C18.0292 21.5976 18.0578 21.5861 18.1094 21.6091C18.1666 21.6262 18.2067 21.6205 18.2067 21.5919C18.2067 21.5575 18.2411 21.5346 18.2812 21.5346C18.3213 21.5346 18.413 21.483 18.4817 21.4143C18.5562 21.3513 18.7739 21.2424 18.9686 21.168C19.3868 21.0247 19.8107 20.7383 19.805 20.618C19.7936 20.4519 19.8107 20.4347 19.8967 20.5034C19.9654 20.5607 19.9998 20.5607 20.0685 20.5034C20.1143 20.4633 20.1945 20.4462 20.2404 20.4691C20.2862 20.4863 20.3263 20.4748 20.3263 20.4462C20.3263 20.4118 20.3607 20.3889 20.4008 20.3889C20.4466 20.3889 20.5268 20.3373 20.5841 20.2743C20.6414 20.2113 20.7216 20.1597 20.7674 20.1597C20.8075 20.1597 20.8419 20.1368 20.8419 20.1082C20.8419 20.0795 20.9335 20.0222 21.0424 19.9879C21.1512 19.9535 21.2887 19.8619 21.346 19.7874C21.4205 19.69 21.4892 19.6614 21.5809 19.6843C21.6439 19.7015 21.7012 19.69 21.7012 19.6556C21.7012 19.6213 21.7527 19.5754 21.8157 19.5582C21.8787 19.5411 21.9303 19.4838 21.9303 19.4322C21.9303 19.3176 22.0964 19.1916 22.2568 19.1859C22.3313 19.1859 22.3943 19.1401 22.4172 19.0713C22.4459 18.9854 22.486 18.9625 22.5662 18.9854C22.6406 19.0083 22.675 18.9968 22.675 18.9338C22.675 18.8823 22.7208 18.8422 22.7896 18.8422C22.8583 18.8422 22.9156 18.7906 22.9385 18.7047C22.9672 18.5787 23.076 18.4985 23.3223 18.4183C23.3796 18.4011 23.4083 18.3552 23.3911 18.3209C23.3624 18.2865 23.3911 18.2636 23.4541 18.275C23.7405 18.3094 24.1988 18.0058 24.1358 17.8225C24.1186 17.7824 24.1472 17.7366 24.1931 17.7194C24.2389 17.6965 24.279 17.6335 24.279 17.5762C24.279 17.5189 24.3191 17.4673 24.3649 17.4673C24.4107 17.4673 24.4967 17.4158 24.5482 17.3528C24.6055 17.2897 24.7315 17.221 24.8289 17.2038C24.932 17.1866 25.0294 17.1293 25.0466 17.0835C25.0638 17.0377 25.1039 17.0148 25.1325 17.0377C25.1612 17.0549 25.207 17.0434 25.2242 17.009C25.2471 16.9747 25.3159 16.9632 25.3846 16.9804C25.482 17.009 25.4934 17.0033 25.4247 16.9575C25.3273 16.8887 25.3674 16.8372 25.5335 16.82C25.608 16.8143 25.6481 16.7856 25.6309 16.7398C25.6137 16.6997 25.6424 16.6653 25.6939 16.6653C25.7455 16.6653 25.7684 16.6481 25.7512 16.631C25.7054 16.5794 25.9345 16.2529 25.9918 16.2872C26.0147 16.3044 26.0319 16.2586 26.0319 16.1899C26.0262 16.0925 26.072 16.0524 26.2439 16.0123C26.3584 15.9836 26.4558 15.9435 26.4558 15.9206C26.4558 15.9034 26.5475 15.7831 26.6563 15.6571C26.7652 15.5368 26.8568 15.4108 26.8568 15.3879C26.8568 15.365 26.8912 15.3478 26.9313 15.3592C27.0344 15.3764 27.2636 15.2332 27.2292 15.1702C27.1776 15.0957 27.2807 15.1072 27.3609 15.1874C27.4125 15.2389 27.4297 15.2389 27.4297 15.1931C27.4297 15.153 27.401 15.1072 27.3724 15.09C27.3323 15.0671 27.338 15.027 27.3839 14.9754C27.424 14.9353 27.5099 14.8322 27.5672 14.752C27.6244 14.6718 27.7104 14.6031 27.7505 14.6031C27.7963 14.6031 27.8135 14.5572 27.802 14.477C27.7734 14.3453 27.9166 14.1448 28.0369 14.1448C28.077 14.1448 28.1286 14.0932 28.1457 14.0302C28.1687 13.9672 28.2317 13.9156 28.3004 13.9156C28.3863 13.9156 28.4093 13.887 28.3863 13.8068C28.3692 13.7381 28.3921 13.7037 28.4551 13.7094C28.5066 13.7094 28.5467 13.675 28.5467 13.6292C28.5525 13.4803 28.7186 13.297 28.8905 13.2511C28.9878 13.2282 29.091 13.1824 29.1253 13.148C29.1883 13.0793 29.2915 12.7757 29.2685 12.6897C29.2628 12.6668 29.2857 12.6095 29.3258 12.5637C29.3602 12.5236 29.3659 12.4549 29.343 12.4205C29.3201 12.3747 29.3258 12.3689 29.3659 12.3919C29.4461 12.4377 29.7211 12.1627 29.7211 12.0424C29.7211 11.8534 29.9044 11.5841 30.0992 11.4867C30.2137 11.4352 30.2939 11.3607 30.2768 11.3206C30.2653 11.2862 30.2939 11.2003 30.3455 11.143C30.4142 11.0628 30.42 11.0285 30.3684 11.0113C30.3111 10.9941 30.3111 10.954 30.357 10.8738C30.3856 10.8108 30.4429 10.7764 30.4715 10.7993C30.546 10.8451 30.7007 10.6447 30.6663 10.5473C30.6491 10.5072 30.6892 10.427 30.7465 10.3697C30.8038 10.3124 30.8668 10.1921 30.8897 10.1062C30.9126 10.0145 30.9756 9.87703 31.0329 9.79683C31.0902 9.71663 31.1303 9.5906 31.1189 9.52186C31.1074 9.44166 31.1246 9.39583 31.1647 9.40729C31.1991 9.41302 31.2735 9.33282 31.3251 9.22398C31.3824 9.11513 31.4912 8.97192 31.5657 8.90891C31.6631 8.82871 31.7203 8.70841 31.7433 8.54228C31.7604 8.41053 31.749 8.30168 31.7261 8.30168C31.6631 8.30168 31.7032 7.49396 31.7662 7.44813C31.7891 7.43095 31.8177 7.3622 31.8292 7.29919C31.8406 7.23618 31.8865 7.15598 31.938 7.11588C32.001 7.07005 32.0125 7.00131 31.9839 6.86955C31.9552 6.7378 31.9724 6.66332 32.0411 6.58312C32.0984 6.52011 32.1099 6.46855 32.0755 6.44564C32.0411 6.42273 32.0297 6.37117 32.0526 6.32534C32.0698 6.27951 32.0583 6.23941 32.0297 6.23941C32.001 6.23941 31.9724 6.14203 31.9667 6.02173C31.9667 5.90716 31.9552 5.74676 31.9552 5.66656C31.9495 5.58636 31.9609 5.32285 31.9781 5.07652C32.0068 4.73281 31.9896 4.59533 31.9266 4.5094C31.8636 4.41774 31.8636 4.36046 31.9094 4.27453C31.9552 4.18287 31.9495 4.14277 31.8922 4.09694C31.8349 4.05112 31.812 3.89072 31.8005 3.58711C31.7948 3.22621 31.7719 3.12309 31.686 3.06008C31.6 2.99134 31.5943 2.9627 31.6573 2.85958C31.6974 2.79657 31.7146 2.71637 31.6974 2.682C31.6745 2.65336 31.6459 2.55597 31.6344 2.47004C31.6172 2.38411 31.537 2.25809 31.4568 2.18362C31.348 2.09196 31.3079 2.00603 31.3136 1.86855C31.3193 1.66232 31.2506 1.51911 31.1418 1.50765C31.1017 1.50765 31.0215 1.49619 30.9642 1.49619C30.884 1.48474 30.8668 1.45609 30.8954 1.37017C30.9184 1.30715 30.9069 1.25559 30.8725 1.25559C30.8382 1.25559 30.8095 1.18685 30.8095 1.10665C30.8095 0.940526 30.672 0.803041 30.5059 0.797313C30.4429 0.797313 30.3799 0.72857 30.3455 0.625457C30.2882 0.476515 30.2367 0.436416 30.0877 0.45933C30.0648 0.45933 30.0304 0.436416 30.0075 0.396316C29.9846 0.361945 29.8242 0.327574 29.6466 0.321845C29.4633 0.316116 29.3201 0.293202 29.3201 0.276017C29.3201 0.201546 29.1368 0.167175 29.0279 0.22446C28.9535 0.270288 28.9191 0.26456 28.9191 0.22446C28.9191 0.190089 28.8962 0.178632 28.8618 0.195817C28.8332 0.213003 28.8045 0.195817 28.8045 0.155718C28.8045 0.0984325 28.7931 0.0984325 28.753 0.161446C28.6957 0.253103 28.203 0.201546 28.0655 0.0927039C27.9796 0.0239616 27.6645 -0.0390522 27.7333 0.0296901ZM28.0541 3.07154C28.1343 3.05435 28.266 3.083 28.3806 3.14601C28.5124 3.22048 28.5811 3.23767 28.6098 3.19184C28.6327 3.15747 28.6957 3.21475 28.7587 3.34078C28.8389 3.50118 28.8504 3.57565 28.8045 3.66158C28.7587 3.74178 28.7587 3.77615 28.8045 3.77615C28.8389 3.77615 28.8561 3.82197 28.8389 3.87926C28.8103 3.95373 28.8446 4.00529 28.9477 4.05112C29.0279 4.08549 29.091 4.16569 29.0967 4.21724C29.0967 4.27453 29.1024 4.43493 29.1139 4.57241C29.1196 4.71563 29.0967 4.84738 29.0566 4.89321C29.005 4.93904 28.9993 5.02497 29.0337 5.17391C29.0566 5.28848 29.068 5.38013 29.0509 5.38013C29.0337 5.38013 29.0509 5.42023 29.0967 5.47179C29.1482 5.5348 29.154 5.56918 29.1024 5.60355C29.068 5.62073 29.0279 5.72385 29.0108 5.82123C28.9821 5.95872 28.9993 6.00454 29.0852 6.02746C29.1654 6.04464 29.1826 6.09047 29.1597 6.24514C29.1482 6.35398 29.1081 6.46855 29.0795 6.50865C29.0509 6.54875 29.0451 6.61177 29.068 6.64614C29.091 6.68624 29.0852 6.70342 29.0566 6.68624C29.0279 6.66332 29.005 6.76644 28.9993 6.91538C28.9936 7.10442 28.9592 7.20181 28.879 7.27055C28.8103 7.3221 28.7415 7.47105 28.7186 7.6028C28.6957 7.73456 28.6613 7.8434 28.6384 7.8434C28.6098 7.8434 28.5926 7.91787 28.5868 8.00953C28.5868 8.10691 28.5582 8.22721 28.5238 8.29023C28.4895 8.35324 28.478 8.41053 28.4895 8.42771C28.5066 8.43917 28.4379 8.54228 28.3462 8.64539C28.2489 8.75424 28.1744 8.86308 28.1744 8.88599C28.1744 8.91464 28.1515 8.92036 28.1171 8.90318C28.0827 8.88599 28.0598 8.92609 28.0598 9.00056C28.0598 9.07503 28.0312 9.16669 28.0025 9.19533C27.9166 9.28126 27.7218 9.68226 27.7791 9.64216C27.8078 9.62497 27.8307 9.63643 27.8307 9.6708C27.8307 9.69944 27.7619 9.76246 27.676 9.80256C27.5901 9.84266 27.5041 9.94577 27.4812 10.0374C27.4583 10.1291 27.4641 10.1806 27.4927 10.1577C27.5213 10.1405 27.5442 10.1692 27.5442 10.215C27.5442 10.3181 27.4526 10.3353 27.401 10.2494C27.338 10.1463 27.2521 10.1921 27.2865 10.3124C27.3151 10.4041 27.3037 10.427 27.2177 10.4098C27.1547 10.3983 27.1203 10.4212 27.1318 10.4728C27.1433 10.5129 27.0974 10.5874 27.0401 10.6275C26.9771 10.6676 26.9084 10.7764 26.8855 10.8623C26.8225 11.1316 26.6048 11.5555 26.5131 11.5899C26.2611 11.6815 26.0663 11.8648 26.072 12.0023C26.072 12.2716 26.0548 12.3117 25.9231 12.3117C25.7856 12.3117 25.6538 12.5007 25.6538 12.684C25.6538 12.7642 25.5908 12.7928 25.4476 12.7757C25.4132 12.7699 25.3388 12.8215 25.2815 12.8845C25.2242 12.9475 25.1497 12.9991 25.1154 12.9991C25.081 12.9991 24.9893 13.0793 24.9091 13.1767C24.8289 13.274 24.7258 13.4001 24.6743 13.4516C24.6227 13.5032 24.5654 13.5948 24.5425 13.6521C24.5253 13.7094 24.4909 13.7438 24.468 13.7266C24.4107 13.6693 24.2733 13.8068 24.3191 13.8755C24.342 13.9156 24.3191 13.9214 24.2503 13.8927C24.1243 13.8469 23.9353 14.0016 23.9353 14.162C23.9353 14.2307 23.9066 14.2594 23.8551 14.2422C23.752 14.2021 23.4655 14.477 23.3109 14.7692C23.265 14.8494 23.2078 14.8838 23.1562 14.8666C23.0989 14.8437 23.0359 14.8952 22.9729 15.0041C22.9213 15.1014 22.8469 15.1645 22.8068 15.153C22.7495 15.1301 22.5719 15.279 22.5662 15.3478C22.5662 15.5082 22.2167 15.8061 22.0334 15.8061C21.999 15.8061 21.9246 15.8404 21.8787 15.8863C21.7413 16.0008 21.4892 16.0467 21.4491 15.9607C21.4319 15.9264 21.4262 15.9836 21.4319 16.0925C21.4376 16.2357 21.4205 16.293 21.3574 16.293C21.3116 16.293 21.2543 16.3159 21.2314 16.3503C21.2085 16.3789 21.0882 16.4018 20.9622 16.3961C20.7674 16.3846 20.7273 16.4018 20.7273 16.4877C20.7273 16.5508 20.6414 16.6596 20.544 16.7455C20.1659 17.0434 20.1258 17.0721 20.2003 17.0377C20.2346 17.0205 20.269 17.0262 20.269 17.0549C20.269 17.1637 20.1888 17.1752 20.1201 17.0778C20.0742 17.0205 20.0456 17.009 20.0399 17.0491C20.0399 17.0892 19.9998 17.1236 19.954 17.1236C19.9081 17.1236 19.868 17.1465 19.868 17.1809C19.868 17.2095 19.8967 17.2382 19.931 17.2382C20.08 17.2382 19.9024 17.3413 19.6962 17.3757C19.5701 17.3929 19.467 17.4387 19.467 17.4673C19.467 17.5017 19.4957 17.5246 19.5243 17.5246C19.5587 17.5246 19.5816 17.5533 19.5816 17.5876C19.5816 17.6277 19.4899 17.6335 19.3238 17.6048C19.1233 17.5762 19.066 17.5876 19.066 17.6506C19.066 17.6907 18.9916 17.7767 18.8942 17.8282C18.8025 17.8855 18.7223 17.9142 18.7223 17.897C18.7223 17.8798 18.665 17.9027 18.5963 17.9485C18.5275 18.0001 18.4187 18.0402 18.3614 18.0402C18.2984 18.0402 18.2755 18.0631 18.2984 18.1089C18.3213 18.1433 18.3156 18.1547 18.2812 18.1376C18.2468 18.1146 18.138 18.1261 18.0406 18.1605C17.8974 18.212 17.8688 18.2464 17.8974 18.3381C17.9203 18.4183 17.9146 18.4412 17.8688 18.4125C17.8287 18.3896 17.7256 18.4584 17.6167 18.5729C17.3818 18.825 17.061 18.8937 16.9465 18.7104C16.8949 18.6245 16.8949 18.5844 16.935 18.5672C16.9808 18.5557 16.9808 18.5156 16.9293 18.4354C16.872 18.3381 16.8777 18.3037 16.9751 18.2349C17.2444 18.0402 17.2787 17.9944 17.2501 17.8454C17.2329 17.7652 17.1985 17.6965 17.1699 17.6965C17.0782 17.6965 17.1126 17.6048 17.2615 17.4444C17.3417 17.3585 17.399 17.2726 17.399 17.2496C17.3818 17.1293 17.4105 16.9518 17.4506 16.9575C17.5537 16.9747 17.6339 16.946 17.6339 16.8945C17.6339 16.8658 17.5938 16.8544 17.5422 16.8773C17.4678 16.9059 17.4563 16.8887 17.4907 16.7799C17.5136 16.7054 17.5823 16.5966 17.6396 16.5336C17.7084 16.4591 17.737 16.3732 17.7141 16.2815C17.6912 16.1956 17.7026 16.1498 17.7485 16.1498C17.7886 16.1498 17.8058 16.1097 17.7828 16.0581C17.7657 16.0123 17.7771 15.9206 17.8058 15.8576C17.8459 15.7889 17.8459 15.7488 17.8115 15.7488C17.7771 15.7488 17.8172 15.6858 17.8917 15.6056C17.9891 15.5139 18.0349 15.4051 18.0349 15.2618C18.0349 15.153 18.0292 15.0556 18.0234 15.0442C18.012 15.0327 18.0521 14.9811 18.1094 14.9239C18.1609 14.8666 18.1953 14.7978 18.1781 14.7692C18.1552 14.7405 18.1666 14.7176 18.1953 14.7176C18.2239 14.7176 18.2411 14.6031 18.2354 14.4598C18.2239 14.2937 18.2411 14.2193 18.2812 14.2422C18.3156 14.2651 18.327 14.2422 18.3041 14.1792C18.2812 14.1161 18.2984 14.0703 18.3671 14.0417C18.4302 14.0188 18.4703 13.9271 18.476 13.8011C18.4817 13.6922 18.5275 13.5719 18.5791 13.5376C18.6249 13.5032 18.6536 13.4344 18.6307 13.3829C18.6135 13.3256 18.6421 13.2798 18.7166 13.2569C18.7853 13.2397 18.8369 13.1938 18.8369 13.1652C18.8369 13.1366 18.8713 13.1136 18.9171 13.1136C19.0145 13.1136 19.0832 12.959 19.003 12.9303C18.9629 12.9189 18.9686 12.8501 19.0145 12.7413C19.0488 12.6439 19.0832 12.4434 19.0889 12.2945C19.0947 12.0711 19.129 11.9909 19.278 11.8305C19.4498 11.6586 19.4556 11.6357 19.3811 11.5326C19.3238 11.4581 19.3009 11.4466 19.2952 11.5039C19.2952 11.5498 19.278 11.5727 19.2608 11.5555C19.2207 11.5097 19.3467 11.2633 19.4441 11.206C19.4899 11.1831 19.5243 11.1258 19.5243 11.08C19.5243 11.0342 19.5931 10.9311 19.6733 10.8394C19.7535 10.7535 19.8337 10.6103 19.8508 10.5244C19.868 10.4327 19.9081 10.3468 19.931 10.3296C19.9597 10.3124 19.9826 10.2379 19.9826 10.1635C19.9826 10.089 20.0112 10.0088 20.0399 9.9916C20.0742 9.97441 20.0972 9.86557 20.0972 9.75673C20.0972 9.63643 20.143 9.5104 20.2117 9.4302C20.3263 9.3099 20.332 9.21825 20.2346 8.96619C20.2117 8.89745 20.2346 8.87454 20.3263 8.87454C20.4695 8.87454 20.6013 8.75997 20.5669 8.65685C20.5554 8.61675 20.5784 8.59957 20.6299 8.62248C20.7388 8.66258 20.8419 8.485 20.8648 8.21576C20.8762 8.10691 20.9163 7.98089 20.9507 7.93506C20.9908 7.88923 21.008 7.82049 20.9851 7.78612C20.9622 7.74602 21.0023 7.67727 21.071 7.63145C21.1398 7.57989 21.2314 7.45386 21.2772 7.35075C21.3231 7.24191 21.4147 7.08724 21.4892 7.00704C21.5694 6.91538 21.6095 6.80654 21.598 6.69197C21.5866 6.59458 21.6038 6.52584 21.6439 6.52584C21.684 6.52584 21.6954 6.56594 21.6782 6.6175C21.6496 6.6977 21.6553 6.70342 21.7298 6.64041C21.81 6.57167 21.81 6.55448 21.7183 6.4571C21.621 6.34826 21.6267 6.34253 21.7584 6.23368C21.8386 6.1764 21.8787 6.12484 21.8501 6.12484C21.8215 6.12484 21.8673 6.07329 21.9532 6.00454C22.0334 5.94153 22.1021 5.8556 22.1021 5.80977C22.1021 5.68947 22.5318 5.25984 22.6578 5.24838C22.7266 5.24838 22.7667 5.21401 22.7495 5.17391C22.738 5.13381 22.7495 5.08798 22.7838 5.06507C22.8182 5.04788 22.8469 4.97914 22.8469 4.91612C22.8469 4.85311 22.887 4.7901 22.9328 4.77291C22.9786 4.75 23.0187 4.7099 23.0187 4.6698C23.0187 4.60105 23.2479 4.4292 23.3223 4.45211C23.3452 4.45784 23.3624 4.41774 23.3624 4.36046C23.3624 4.30317 23.3796 4.23443 23.4025 4.21151C23.4254 4.1886 23.4484 4.12559 23.4484 4.07403C23.4484 3.99956 23.4942 3.98237 23.6259 3.9881C23.752 3.99956 23.8207 3.97665 23.8436 3.91363C23.8723 3.84489 23.9009 3.83343 23.9582 3.88499C24.0155 3.93082 24.0556 3.90217 24.1415 3.7475C24.216 3.61002 24.2904 3.54701 24.3764 3.54701C24.4508 3.54701 24.5081 3.51836 24.5081 3.48399C24.5081 3.44389 24.531 3.43816 24.5826 3.47253C24.7029 3.56419 25.0065 3.56419 25.0409 3.46681C25.0581 3.42098 25.1211 3.39234 25.1784 3.40379C25.2357 3.40952 25.3101 3.39806 25.3388 3.37515C25.3731 3.35224 25.5164 3.31214 25.671 3.29495C25.82 3.27204 25.9403 3.22621 25.9403 3.19184C25.9403 3.15747 25.9574 3.14028 25.9746 3.15747C25.9918 3.18038 26.0663 3.15747 26.1465 3.11737C26.2496 3.06581 26.3584 3.06008 26.5475 3.10018C26.7308 3.14028 26.8282 3.14028 26.874 3.09445C26.9771 2.99134 27.0745 3.02571 27.1318 3.18611C27.1719 3.28922 27.1948 3.31214 27.1948 3.24339C27.2005 3.18038 27.2464 3.14601 27.3323 3.15174C27.4526 3.15174 27.4526 3.15747 27.3438 3.20329C27.2464 3.24912 27.2464 3.25485 27.3839 3.24339C27.4698 3.23767 27.5271 3.22048 27.5099 3.19757C27.4984 3.17465 27.5557 3.10591 27.6416 3.0429C27.7791 2.93978 27.8078 2.93978 27.865 3.01998C27.9051 3.07154 27.9739 3.09445 28.0541 3.07154ZM31.7261 3.46681C31.7261 3.51263 31.6974 3.53555 31.6688 3.51836C31.6344 3.49545 31.623 3.45535 31.6401 3.42671C31.6917 3.34651 31.7261 3.36369 31.7261 3.46681ZM27.2578 15.0041C27.2578 15.0327 27.2292 15.0613 27.1948 15.0613C27.1662 15.0613 27.1547 15.0327 27.1719 15.0041C27.1891 14.9697 27.2177 14.9468 27.2349 14.9468C27.2464 14.9468 27.2578 14.9697 27.2578 15.0041ZM4.57285 23.1443C4.57285 23.1729 4.54994 23.1959 4.51557 23.1959C4.48692 23.1959 4.45828 23.1558 4.45828 23.1042C4.45828 23.0584 4.48692 23.0355 4.51557 23.0526C4.54994 23.0698 4.57285 23.1099 4.57285 23.1443ZM7.95268 25.0175C7.95268 25.0462 7.91258 25.0691 7.86676 25.0691C7.82093 25.0691 7.78083 25.0462 7.78083 25.0175C7.78083 24.9946 7.82093 24.9717 7.86676 24.9717C7.91258 24.9717 7.95268 24.9946 7.95268 25.0175ZM14.5405 25.8883C14.5405 25.9169 14.5176 25.9455 14.4832 25.9455C14.4546 25.9455 14.4259 25.9169 14.4259 25.8883C14.4259 25.8539 14.4546 25.831 14.4832 25.831C14.5176 25.831 14.5405 25.8539 14.5405 25.8883Z" fill="white"/>
<path d="M25.623 26.1449C25.4569 26.3168 25.222 26.3626 25.1705 26.2366C25.159 26.1965 25.0903 26.1621 25.0273 26.1564C24.9356 26.1449 24.9242 26.1621 24.9757 26.2251C25.0273 26.2881 25.0158 26.3168 24.9184 26.3683C24.8497 26.4027 24.758 26.4199 24.7179 26.4027C24.6721 26.3855 24.6206 26.397 24.5976 26.4313C24.5805 26.4657 24.5289 26.4772 24.4831 26.46C24.4372 26.4428 24.4029 26.4542 24.4029 26.4829C24.4029 26.5173 24.3742 26.5402 24.3456 26.5402C24.3112 26.5402 24.2253 26.5975 24.1565 26.6719C24.0878 26.7407 23.9675 26.8094 23.8873 26.8151C23.8071 26.8209 23.6696 26.8381 23.5722 26.8495C23.4806 26.861 23.3832 26.8782 23.366 26.8782C23.3431 26.8839 23.3144 26.9354 23.2973 26.9985C23.2801 27.0729 23.2171 27.113 23.1254 27.113C22.9822 27.113 22.7702 27.2963 22.839 27.3594C22.8905 27.4166 22.6729 27.577 22.5869 27.5427C22.5526 27.5312 22.5125 27.5713 22.4953 27.6343C22.4781 27.6973 22.4953 27.7432 22.5296 27.7432C22.5812 27.7432 22.5812 27.7546 22.5354 27.789C22.438 27.852 22.2833 28.1785 22.3234 28.2244C22.3463 28.2473 22.312 28.2759 22.2432 28.2931C22.1687 28.316 22.1286 28.3561 22.1516 28.4077C22.1687 28.4535 22.1573 28.4879 22.1229 28.4879C22.0885 28.4879 22.0771 28.5795 22.0943 28.717C22.1172 28.866 22.1 28.9805 22.0484 29.0435C21.9797 29.1295 21.9797 29.1352 22.0771 29.1008C22.1687 29.0665 22.1745 29.0779 22.1401 29.2154C22.1115 29.3071 22.0885 29.4331 22.0828 29.5018C22.0771 29.5763 22.0599 29.645 22.0427 29.6622C21.9969 29.7138 22.2203 30.1491 22.289 30.1491C22.3291 30.1491 22.3406 30.2007 22.3234 30.2694C22.3005 30.3439 22.3234 30.3955 22.3864 30.4184C22.438 30.4356 22.5239 30.4871 22.5697 30.5215C22.6156 30.5616 22.7244 30.6074 22.8161 30.6303C22.902 30.6475 22.9707 30.7048 22.9707 30.7449C22.9707 30.7907 23.0567 30.8423 23.1712 30.8595C23.2801 30.8824 23.3717 30.9225 23.3717 30.9454C23.3717 30.9741 23.4462 31.0256 23.5379 31.0657C23.7097 31.1345 23.8014 31.2662 23.7384 31.3579C23.7212 31.3865 23.7384 31.4037 23.7785 31.398C23.8186 31.3865 23.9045 31.4839 23.9675 31.6156C24.0878 31.8448 24.3169 32.1255 24.3914 32.1255C24.4143 32.1312 24.4945 32.1656 24.569 32.2057C24.6435 32.2458 24.6893 32.2572 24.6664 32.2229C24.5919 32.1026 24.7752 32.0396 24.9413 32.1255C25.1533 32.2401 25.1877 32.2343 25.222 32.0968C25.2392 32.0281 25.3022 31.9823 25.3653 31.9823C25.5199 31.9823 25.6689 31.925 25.6345 31.8734C25.623 31.8505 25.7032 31.799 25.8121 31.7589C25.9152 31.7188 26.0069 31.6557 26.0069 31.6099C26.0069 31.5469 26.0871 31.4896 26.236 31.4381C26.4136 31.3751 26.5682 31.2891 26.6313 31.2147C26.6714 31.1631 26.7229 31.1345 26.7458 31.1459C26.7687 31.1631 26.8318 31.0886 26.889 30.9855C26.9406 30.8824 27.0666 30.7564 27.1583 30.6991C27.3645 30.5731 27.6108 30.321 27.6108 30.2236C27.6108 30.1835 27.6395 30.1491 27.6681 30.1491C27.7025 30.1491 27.7254 30.0919 27.7254 30.0174C27.7254 29.9315 27.777 29.8513 27.8744 29.7997C28.0004 29.7367 28.0176 29.6966 27.9947 29.5305C27.966 29.3701 27.9832 29.33 28.0978 29.2784C28.2238 29.2211 28.2353 29.1868 28.2066 28.9977C28.178 28.8373 28.1952 28.7571 28.2639 28.6826C28.3212 28.6254 28.3441 28.5509 28.3212 28.4936C28.2983 28.442 28.2868 28.3561 28.2868 28.2988C28.2925 28.2473 28.2983 28.1671 28.2983 28.127C28.304 28.0926 28.2925 27.978 28.2754 27.8864C28.2582 27.789 28.2754 27.6458 28.3097 27.5599C28.3613 27.4281 28.3498 27.3765 28.2295 27.2391C28.1493 27.1474 28.0577 26.9927 28.0176 26.8896C27.9717 26.7922 27.9087 26.712 27.8629 26.712C27.7712 26.712 27.5306 26.4886 27.4791 26.3569C27.4562 26.2824 27.3932 26.2652 27.2385 26.2767C27.0953 26.2881 27.038 26.2652 27.038 26.2079C27.038 26.1621 27.0036 26.1392 26.9521 26.1621C26.9062 26.1793 26.8031 26.1678 26.7286 26.1392C26.5969 26.0933 26.2933 26.0361 25.9381 26.0017C25.8235 25.9902 25.7319 26.0361 25.623 26.1449ZM23.4863 26.9698C23.4863 27.0156 23.4634 27.0557 23.429 27.0557C23.4004 27.0557 23.3889 27.0156 23.4061 26.9698C23.429 26.924 23.4519 26.8839 23.4634 26.8839C23.4748 26.8839 23.4863 26.924 23.4863 26.9698Z" fill="white"/>
</svg>
