<svg width="20" height="20" viewBox="0 0 20 20" fill="none" xmlns="http://www.w3.org/2000/svg">
<path fill-rule="evenodd" clip-rule="evenodd" d="M7.85746 7.47417H10.9525V9.01583C11.3983 8.12917 12.5416 7.3325 14.2591 7.3325C17.5516 7.3325 18.3333 9.0975 18.3333 12.3358V18.3333H15V13.0733C15 11.2292 14.5541 10.1892 13.4191 10.1892C11.845 10.1892 11.1908 11.31 11.1908 13.0725V18.3333H7.85746V7.47417V7.47417ZM2.14163 18.1917H5.47496V7.3325H2.14163V18.1917V18.1917ZM5.95246 3.79167C5.95258 4.07106 5.89717 4.3477 5.78945 4.60549C5.68172 4.86328 5.52384 5.0971 5.32496 5.29334C4.92196 5.69385 4.37647 5.91805 3.80829 5.91667C3.24112 5.91629 2.69689 5.69267 2.29329 5.29417C2.09514 5.09726 1.93778 4.86319 1.83025 4.60536C1.72271 4.34753 1.66711 4.07102 1.66663 3.79167C1.66663 3.2275 1.89163 2.6875 2.29413 2.28917C2.69736 1.89013 3.24183 1.66642 3.80913 1.66667C4.37746 1.66667 4.92246 1.89083 5.32496 2.28917C5.72663 2.6875 5.95246 3.2275 5.95246 3.79167Z" fill="white"/>
</svg>
