<svg width="224" height="35" viewBox="0 0 224 35" fill="none" xmlns="http://www.w3.org/2000/svg">
<g clip-path="url(#clip0_48_2)">
<path d="M50.4304 34.2671C55.2297 34.2671 58.9778 31.8926 60.9432 27.7489L55.961 25.1883C54.9098 27.3299 52.8529 28.5405 50.3847 28.5405C47.1396 28.5405 44.8083 26.4918 44.3514 23.4189H61.1717V21.4635C61.1717 15.1781 57.0123 9.77728 49.8362 9.77728C42.8429 9.77728 38.0894 15.2712 38.0894 21.9291C38.0894 29.2854 43.3914 34.2671 50.4304 34.2671ZM44.6255 19.7409C45.0826 17.4129 46.9566 15.5506 49.7905 15.5506C52.533 15.5506 54.4527 17.3664 54.7269 19.7409H44.6255Z" fill="white"/>
<path d="M75.9803 34.3137C77.5799 34.3137 79.5455 33.9413 80.6882 33.1963V27.2834C79.5912 27.9817 77.9 28.4008 76.5745 28.4008C74.1977 28.4008 72.6893 26.9109 72.6893 24.3501V16.2024H80.6882V10.6154H72.6893V4.74896H66.1988V10.6154H62.0394V16.2024H66.1988V24.5363C66.1988 30.3097 69.4441 34.3137 75.9803 34.3137Z" fill="white"/>
<path d="M93.5812 34.2671C96.6894 34.2671 99.1576 33.01 100.757 30.9615V33.6619H106.928V22.0689C106.928 15.1316 101.717 9.91699 94.6325 9.91699C87.6849 9.91699 82.3828 15.4575 82.3828 22.0689C82.3828 28.7732 86.9993 34.2671 93.5812 34.2671ZM94.6325 28.0749C91.2958 28.0749 88.8733 25.3744 88.8733 22.1153C88.8733 18.8563 91.2958 16.1558 94.6325 16.1558C97.9692 16.1558 100.437 18.8563 100.437 22.1153C100.437 25.3744 97.9692 28.0749 94.6325 28.0749Z" fill="white"/>
<path d="M118.319 34.3137C120.97 34.3137 122.981 32.6842 123.758 29.4251L127.14 15.6902C127.14 15.6902 127.095 15.6436 127.186 15.6436C127.323 15.6436 127.277 15.6902 127.277 15.6902L130.66 29.4251C131.482 32.6842 133.448 34.3137 136.099 34.3137C138.567 34.3137 141.173 32.7773 141.904 29.4251L146.063 10.6154H140.076L136.282 28.168C136.282 28.2611 136.282 28.3077 136.145 28.3077C136.008 28.3077 136.008 28.2611 136.008 28.2146L132.671 14.7591C131.894 11.5465 130.066 9.91699 127.232 9.91699C124.443 9.91699 122.569 11.5465 121.701 14.8522L118.364 28.2146C118.364 28.2146 118.41 28.2611 118.273 28.2611C118.09 28.2611 118.136 28.2611 118.136 28.168L114.205 10.6154H108.126L112.468 29.4251C113.245 32.7308 115.805 34.3137 118.319 34.3137Z" fill="white"/>
<path d="M158.7 34.2671C165.648 34.2671 170.996 28.7732 170.996 22.0689C170.996 15.4575 165.693 9.91699 158.7 9.91699C151.799 9.91699 146.45 15.411 146.45 22.0689C146.45 28.7732 151.753 34.2671 158.7 34.2671ZM158.7 28.0749C155.363 28.0749 152.941 25.3744 152.941 22.1153C152.941 18.8563 155.363 16.1558 158.7 16.1558C162.037 16.1558 164.504 18.8563 164.504 22.1153C164.504 25.3744 162.037 28.0749 158.7 28.0749Z" fill="white"/>
<path d="M180.204 33.662V20.6721C180.204 17.925 181.757 16.249 184.316 16.249C185.505 16.249 186.831 16.575 187.927 17.2267V10.8016C186.785 10.2895 185.185 10.0101 183.722 10.0101C177.003 10.0101 173.712 14.5263 173.712 20.4393V33.662H180.204Z" fill="white"/>
<path d="M190.793 0V33.6619H197.283V0H190.793Z" fill="white"/>
<path d="M211.705 34.3137C218.79 34.3137 224 29.1457 224 22.1619V0H217.51L217.464 12.1518C215.818 10.8016 213.624 9.96356 211.34 9.96356C204.3 9.96356 199.456 14.9919 199.456 22.1619C199.456 28.8198 204.757 34.3137 211.705 34.3137ZM211.705 28.0749C208.368 28.0749 205.946 25.421 205.946 22.1619C205.946 18.9027 208.368 16.2024 211.705 16.2024C215.041 16.2024 217.51 18.9027 217.51 22.1619C217.51 25.421 215.041 28.0749 211.705 28.0749Z" fill="white"/>
<path d="M27.7445 9.73077C25.0935 9.73077 23.0823 11.3603 22.3053 14.6194L18.9229 28.3543C18.9229 28.3543 18.9686 28.4008 18.8772 28.4008C18.7401 28.4008 18.7858 28.3543 18.7858 28.3543L15.4034 14.6194C14.5807 11.3603 12.6153 9.73077 9.96425 9.73077C7.49606 9.73077 4.89071 11.2672 4.1594 14.6194L0 33.4291H5.9877L9.78142 15.8765C9.78142 15.7833 9.78142 15.7368 9.91856 15.7368C10.0557 15.7368 10.0557 15.7833 10.0557 15.8299L13.3923 29.2854C14.1694 32.498 15.9976 34.1274 18.8315 34.1274C21.6197 34.1274 23.4937 32.498 24.3621 29.1923L27.6988 15.8299C27.6988 15.8299 27.6531 15.7833 27.7902 15.7833C27.9731 15.7833 27.9273 15.7833 27.9273 15.8765L31.8582 33.4291H37.9372L33.5951 14.6194C32.8181 11.3138 30.2584 9.73077 27.7445 9.73077Z" fill="white"/>
</g>
<defs>
<clipPath id="clip0_48_2">
<rect width="224" height="35" fill="white"/>
</clipPath>
</defs>
</svg>
