<svg width="212" height="38" viewBox="0 0 212 38" fill="none" xmlns="http://www.w3.org/2000/svg">
<path d="M10.6606 37.2538C12.296 37.2538 13.7637 37.0051 15.1056 36.4662C16.4056 35.9687 17.5378 35.2225 18.5023 34.2691C19.4668 33.3156 20.1796 32.1549 20.7248 30.7869C21.2699 29.4189 21.5215 27.8851 21.5215 26.1854V7.32361H16.2798V9.5207H15.9443C15.3153 8.65016 14.4766 7.94543 13.4282 7.40652C12.3799 6.90907 11.1219 6.66034 9.69611 6.66034C8.48003 6.66034 7.26394 6.90907 6.13172 7.40652C4.95756 7.90398 3.90921 8.6087 3.0286 9.5207C2.14798 10.4742 1.39317 11.5934 0.84802 12.8785C0.302877 14.2051 0.00933838 15.656 0.00933838 17.2727C0.00933838 18.8894 0.302877 20.3404 0.84802 21.6254C1.39317 22.9105 2.14798 24.0298 3.0286 24.9418C3.90921 25.8953 4.95756 26.6 6.13172 27.0974C7.26394 27.5949 8.48003 27.8436 9.69611 27.8436C11.1219 27.8436 12.3799 27.5949 13.4282 27.056C14.4766 26.5585 15.3153 25.8538 15.9443 24.9833H16.2798V26.3927C16.2798 28.2996 15.7766 29.792 14.7701 30.8284C13.7637 31.9062 12.3799 32.4451 10.6606 32.4451C9.57031 32.4451 8.56389 32.1549 7.68328 31.5331C6.80266 30.9527 6.13172 30.1236 5.75431 29.0458L0.512548 31.1185C0.764152 31.8233 1.1835 32.5694 1.72864 33.2742C2.27378 33.9789 2.98666 34.6422 3.82534 35.2225C4.66402 35.8444 5.67044 36.3004 6.80266 36.6734C7.93488 37.0465 9.1929 37.2538 10.6606 37.2538ZM10.8703 22.952C10.1993 22.952 9.52838 22.8276 8.89937 22.5789C8.27035 22.3302 7.68328 21.9571 7.18007 21.4596C6.67686 21.0036 6.25752 20.3818 5.96398 19.6771C5.67044 18.9724 5.50271 18.1847 5.50271 17.2727C5.50271 16.3607 5.67044 15.5316 5.96398 14.8269C6.25752 14.1222 6.67686 13.5418 7.18007 13.0444C7.68328 12.5469 8.27035 12.1738 8.89937 11.9251C9.52838 11.6764 10.1993 11.552 10.8703 11.552C11.5412 11.552 12.2122 11.6764 12.8831 11.9251C13.5121 12.1738 14.0992 12.5469 14.6024 13.0029C15.1056 13.5004 15.5249 14.1222 15.8185 14.8269C16.112 15.5316 16.2798 16.3607 16.2798 17.2727C16.2798 18.1847 16.112 18.9724 15.8185 19.6771C15.5249 20.3818 15.1056 21.0036 14.6024 21.4596C14.0992 21.9571 13.5121 22.3302 12.8831 22.5789C12.2122 22.8276 11.5412 22.952 10.8703 22.952Z" fill="white"/>
<path d="M40.8817 27.6364H46.0396V6.66034H40.5462V9.76943C40.043 8.89888 39.2463 8.19416 38.1979 7.57234C37.1496 6.95052 35.8077 6.66034 34.2561 6.66034C32.9562 6.66034 31.6981 6.90907 30.524 7.44798C29.3079 7.98688 28.2595 8.73307 27.3789 9.68652C26.4564 10.64 25.7435 11.8007 25.1984 13.1273C24.6532 14.4538 24.4016 15.9047 24.4016 17.48C24.4016 19.0553 24.6532 20.5062 25.1984 21.8327C25.7435 23.1593 26.4564 24.2785 27.3789 25.232C28.2595 26.1854 29.3079 26.9316 30.524 27.4705C31.6981 28.0094 32.9562 28.2996 34.2561 28.2996C35.8077 28.2996 37.1496 28.0094 38.1979 27.3876C39.2463 26.7658 40.043 26.0611 40.5462 25.1905H40.8817V27.6364ZM35.3883 23.2836C34.6755 23.2836 33.9626 23.1593 33.3336 22.8691C32.6626 22.5789 32.0755 22.2058 31.5723 21.7083C31.0691 21.2109 30.6498 20.5891 30.3562 19.8844C30.0627 19.1796 29.895 18.3505 29.895 17.48C29.895 16.6094 30.0627 15.7804 30.3562 15.0756C30.6498 14.3709 31.0691 13.7491 31.5723 13.2516C32.0755 12.7542 32.6626 12.3811 33.3336 12.0909C33.9626 11.8007 34.6755 11.6764 35.3883 11.6764C36.1012 11.6764 36.8141 11.8007 37.485 12.0494C38.1141 12.3396 38.7011 12.7127 39.2043 13.2102C39.7075 13.7076 40.1269 14.3294 40.4204 15.0342C40.714 15.7389 40.8817 16.568 40.8817 17.48C40.8817 18.392 40.714 19.2211 40.4204 19.9258C40.1269 20.6305 39.7075 21.2524 39.2043 21.7498C38.7011 22.2473 38.1141 22.6204 37.485 22.8691C36.8141 23.1593 36.1012 23.2836 35.3883 23.2836Z" fill="white"/>
<path d="M50.0907 27.6364H55.5841V17.7702C55.5841 16.8996 55.6679 16.112 55.8776 15.3658C56.0873 14.6196 56.3389 13.9564 56.7163 13.4174C57.0937 12.8785 57.513 12.464 58.0582 12.1324C58.6033 11.8422 59.1904 11.6764 59.9033 11.6764C62.2935 11.6764 63.5096 13.0444 63.5096 15.8218V27.6364H69.003V17.7702C69.003 16.8996 69.1288 16.112 69.3384 15.3658C69.5481 14.6196 69.8416 13.9564 70.219 13.4174C70.5965 12.8785 71.0577 12.464 71.6029 12.1324C72.148 11.8422 72.819 11.6764 73.5318 11.6764C75.8382 11.6764 76.9704 13.0444 76.9704 15.8218V27.6364H82.4638V14.8269C82.4638 13.6247 82.2961 12.5469 82.0025 11.5105C81.709 10.5156 81.2477 9.64507 80.6606 8.94034C80.0316 8.23561 79.2768 7.65525 78.3543 7.2407C77.4317 6.86761 76.3414 6.66034 75.0834 6.66034C73.406 6.66034 71.9803 7.03343 70.8061 7.73816C69.632 8.48434 68.7094 9.35488 68.0804 10.3912C67.6191 9.35488 66.8643 8.44288 65.816 7.73816C64.7676 7.03343 63.4257 6.66034 61.8742 6.66034C60.5323 6.66034 59.3162 6.95052 58.2259 7.57234C57.0937 8.19416 56.2131 8.98179 55.5841 9.9767H55.2486V7.32361H50.0907V27.6364Z" fill="white"/>
<path d="M101.245 20.5062C100.784 21.3767 100.113 22.0814 99.3163 22.6203C98.4777 23.2007 97.4293 23.4909 96.1713 23.4909C95.5423 23.4909 94.9133 23.408 94.2843 23.2007C93.6552 23.0349 93.1101 22.7447 92.6069 22.3302C92.0618 21.9571 91.6424 21.4596 91.3069 20.8378C90.9295 20.2574 90.7199 19.5527 90.5941 18.7236H106.068C106.068 18.5578 106.068 18.392 106.11 18.2676C106.11 18.1433 106.11 17.9774 106.152 17.8116C106.152 17.6873 106.152 17.5214 106.152 17.3142C106.152 15.7804 105.942 14.3709 105.481 13.0858C105.019 11.8007 104.39 10.64 103.51 9.68652C102.629 8.73307 101.581 7.98688 100.281 7.44798C98.9809 6.90907 97.5132 6.66034 95.8778 6.66034C94.3262 6.66034 92.9004 6.95052 91.6005 7.53088C90.3005 8.11125 89.1683 8.89889 88.2038 9.85234C87.2393 10.8472 86.5265 12.008 85.9813 13.2931C85.4362 14.6196 85.1846 16.0291 85.1846 17.48C85.1846 19.0553 85.4781 20.5062 86.0232 21.7913C86.5684 23.1178 87.3232 24.2785 88.2877 25.232C89.2522 26.1854 90.4263 26.9316 91.7682 27.4705C93.0682 28.0094 94.5359 28.2996 96.0874 28.2996C98.3938 28.2996 100.365 27.8022 102 26.7658C103.594 25.7294 104.852 24.4029 105.816 22.7447L101.245 20.5062ZM90.8876 14.8684C91.265 13.6662 91.894 12.7542 92.7746 12.0909C93.6553 11.4276 94.7036 11.096 95.8778 11.096C96.7164 11.096 97.4293 11.2203 98.0583 11.4691C98.6454 11.7178 99.1486 12.0494 99.568 12.4225C99.9454 12.7956 100.281 13.2102 100.491 13.6662C100.7 14.1222 100.784 14.4953 100.826 14.8684H90.8876Z" fill="white"/>
<path d="M108.863 36.5905H114.357V25.1905C114.86 26.0611 115.657 26.7658 116.705 27.3876C117.753 28.0094 119.095 28.2996 120.647 28.2996C121.947 28.2996 123.205 28.0094 124.421 27.4705C125.595 26.9316 126.643 26.1854 127.566 25.232C128.446 24.2785 129.159 23.1593 129.704 21.8327C130.25 20.5062 130.501 19.0553 130.501 17.48C130.501 15.9047 130.25 14.4538 129.704 13.1273C129.159 11.8007 128.446 10.64 127.566 9.68652C126.643 8.73307 125.595 7.98688 124.421 7.44798C123.205 6.90907 121.947 6.66034 120.647 6.66034C119.095 6.66034 117.753 6.95052 116.705 7.57234C115.657 8.19416 114.86 8.89888 114.357 9.76943H114.021V7.32361H108.863V36.5905ZM119.514 23.2836C118.802 23.2836 118.089 23.1593 117.46 22.8691C116.789 22.6204 116.202 22.2473 115.699 21.7498C115.195 21.2524 114.776 20.6305 114.482 19.9258C114.189 19.2211 114.021 18.392 114.021 17.48C114.021 16.568 114.189 15.7389 114.482 15.0342C114.776 14.3294 115.195 13.7076 115.699 13.2102C116.202 12.7127 116.789 12.3396 117.46 12.0494C118.089 11.8007 118.802 11.6764 119.514 11.6764C120.227 11.6764 120.94 11.8007 121.611 12.0909C122.24 12.3811 122.827 12.7542 123.33 13.2516C123.834 13.7491 124.253 14.3709 124.547 15.0756C124.84 15.7804 125.008 16.6094 125.008 17.48C125.008 18.3505 124.84 19.1796 124.547 19.8844C124.253 20.5891 123.834 21.2109 123.33 21.7084C122.827 22.2058 122.24 22.5789 121.611 22.8691C120.94 23.1593 120.227 23.2836 119.514 23.2836Z" fill="white"/>
<path d="M148.688 27.6364H153.846V6.66034H148.352V9.76943C147.849 8.89888 147.052 8.19416 146.004 7.57234C144.956 6.95052 143.614 6.66034 142.062 6.66034C140.762 6.66034 139.504 6.90907 138.33 7.44798C137.114 7.98688 136.066 8.73307 135.185 9.68652C134.262 10.64 133.55 11.8007 133.004 13.1273C132.459 14.4538 132.208 15.9047 132.208 17.48C132.208 19.0553 132.459 20.5062 133.004 21.8327C133.55 23.1593 134.262 24.2785 135.185 25.232C136.066 26.1854 137.114 26.9316 138.33 27.4705C139.504 28.0094 140.762 28.2996 142.062 28.2996C143.614 28.2996 144.956 28.0094 146.004 27.3876C147.052 26.7658 147.849 26.0611 148.352 25.1905H148.688V27.6364ZM143.194 23.2836C142.481 23.2836 141.769 23.1593 141.14 22.8691C140.469 22.5789 139.882 22.2058 139.378 21.7083C138.875 21.2109 138.456 20.5891 138.162 19.8844C137.869 19.1796 137.701 18.3505 137.701 17.48C137.701 16.6094 137.869 15.7804 138.162 15.0756C138.456 14.3709 138.875 13.7491 139.378 13.2516C139.882 12.7542 140.469 12.3811 141.14 12.0909C141.769 11.8007 142.481 11.6764 143.194 11.6764C143.907 11.6764 144.62 11.8007 145.291 12.0494C145.92 12.3396 146.507 12.7127 147.01 13.2102C147.514 13.7076 147.933 14.3294 148.226 15.0342C148.52 15.7389 148.688 16.568 148.688 17.48C148.688 18.392 148.52 19.2211 148.226 19.9258C147.933 20.6305 147.514 21.2524 147.01 21.7498C146.507 22.2473 145.92 22.6204 145.291 22.8691C144.62 23.1593 143.907 23.2836 143.194 23.2836Z" fill="white"/>
<path d="M157.897 27.6364H163.39V17.6873C163.39 16.8582 163.516 16.0706 163.768 15.3658C163.977 14.6611 164.313 14.0808 164.774 13.5418C165.193 13.0029 165.697 12.5884 166.326 12.2982C166.955 12.008 167.626 11.8837 168.38 11.8837C168.967 11.8837 169.471 11.9251 169.89 12.008C170.267 12.1324 172.113 12.2568 172.448 12.4226V7.48947C172.071 7.2822 171.651 7.07492 171.148 6.95056C170.603 6.8262 169.974 6.74329 169.261 6.74329C168.674 6.74329 168.087 6.8262 167.5 6.99201C166.871 7.15783 166.326 7.40656 165.822 7.69674C165.277 7.98692 164.816 8.36001 164.397 8.77456C163.977 9.1891 163.642 9.6451 163.39 10.1426H163.055V7.32365H157.897V27.6364Z" fill="white"/>
<path d="M176.609 20.8793C176.609 23.1593 177.28 24.9418 178.58 26.1855C179.125 26.7244 179.838 27.1804 180.676 27.4706C181.473 27.8022 182.397 27.968 183.445 27.968C184.326 27.968 185.163 27.8851 185.918 27.7193C186.631 27.5949 187.345 27.3462 187.974 27.056V22.2888C187.974 22.2888 185.918 22.5789 185.625 22.6618C185.331 22.7862 184.954 22.8277 184.492 22.8277C183.779 22.8277 183.192 22.6204 182.815 22.1644C182.521 21.8742 182.354 21.5426 182.27 21.128C182.144 20.7549 182.102 20.2989 182.102 19.8429V11.9666H187.135V7.32365H182.102V1.10547H176.609V7.32365H173.002V11.9666H176.609V20.8793Z" fill="white"/>
<path d="M192.434 36.5905H198.347L211.221 7.32361H205.098L200.108 19.6356H199.815L194.615 7.32361H188.367L197.005 26.6414L192.434 36.5905Z" fill="white"/>
</svg>
