<svg width="197" height="38" viewBox="0 0 197 38" fill="none" xmlns="http://www.w3.org/2000/svg">
<path d="M6.29948 34.0485C4.36118 34.0485 2.37442 33.4271 0.726863 32.607L0 36.6083C1.38104 37.3787 3.707 38 6.2268 38C10.6122 38 12.8897 35.8627 12.8897 32.7561C12.8897 29.7987 10.3699 28.6803 7.97127 28.0093C6.46908 27.6117 5.01536 27.2389 5.01536 26.5182C5.01536 25.8969 5.52416 25.698 6.46908 25.698C8.04395 25.698 10.0792 26.2448 11.7994 27.1146L12.5505 23.1134C11.0968 22.3429 9.15848 21.7465 6.44485 21.7465C2.30173 21.7465 0.242288 23.7098 0.242288 26.7667C0.242288 29.9478 3.05283 30.9916 5.28187 31.6626C7.05057 32.2094 8.11664 32.3833 8.11664 33.1538C8.11664 33.8248 7.38978 34.0485 6.29948 34.0485Z" fill="white"/>
<path d="M24.3806 26.0957H28.9598V22.0944H15.0283V26.0957H19.6075V37.6272H24.3806V26.0957Z" fill="white"/>
<path d="M45.3591 37.6272L40.2468 22.0944H34.1654L28.9562 37.6272H33.6566L34.5531 34.7195H39.6896L40.6345 37.6272H45.3591ZM37.1698 25.5986L38.7689 31.0413H35.4738L37.1698 25.5986Z" fill="white"/>
<path d="M52.7661 37.6272V33.0295L54.0987 32.9052L56.8123 37.6272H62.0942L58.3387 31.6626C60.3739 30.8425 61.2946 29.1774 61.2946 27.1892C61.2946 24.0826 59.0898 22.0944 54.8498 22.0944H47.993V37.6272H52.7661ZM54.3167 29.5253L52.6692 29.5502V25.8223H53.9775C55.722 25.8223 56.352 26.3691 56.352 27.5371C56.352 28.8046 55.7705 29.3513 54.3167 29.5253Z" fill="white"/>
<path d="M75.4272 29.4508C77.2444 28.9786 78.3589 27.9845 78.3589 26.1205C78.3589 23.9335 77.3655 22.0944 72.3986 22.0944H65.0573V37.6272H72.4228C77.7532 37.6272 78.8192 35.465 78.8192 33.0544C78.8192 31.0662 77.3413 29.7241 75.4272 29.4508ZM73.5858 26.9904C73.5858 27.9845 72.9316 28.4815 71.6475 28.4815H69.6608V25.5738H71.7929C72.9801 25.5738 73.5858 26.046 73.5858 26.9904ZM73.9977 32.6816C73.9977 33.7005 73.3435 34.1479 71.8898 34.1479H69.6608V31.2401H71.8413C73.1982 31.2401 73.9977 31.6129 73.9977 32.6816Z" fill="white"/>
<path d="M95.9353 31.1159V22.0944H91.1865V31.0413C91.1865 33.2283 90.5323 33.9739 88.9575 33.9739C87.3099 33.9739 86.6073 33.0047 86.6073 30.9171V22.0944H81.8342V31.5135C81.8342 36.2106 84.8628 38 88.8848 38C93.0279 38 95.9353 35.9124 95.9353 31.1159Z" fill="white"/>
<path d="M104.574 37.6272V33.0295L105.907 32.9052L108.62 37.6272H113.902L110.147 31.6626C112.182 30.8425 113.103 29.1774 113.103 27.1892C113.103 24.0826 110.898 22.0944 106.658 22.0944H99.801V37.6272H104.574ZM106.125 29.5253L104.477 29.5502V25.8223H105.785C107.53 25.8223 108.16 26.3691 108.16 27.5371C108.16 28.8046 107.578 29.3513 106.125 29.5253Z" fill="white"/>
<path d="M130.733 36.5834V28.4567H123.028V32.2094H126.493V33.7751C126.008 33.9739 125.184 34.0733 124.53 34.0733C121.841 34.0733 120.702 32.5822 120.702 29.8235C120.702 27.4626 122.18 25.8223 124.627 25.8223C126.056 25.8223 127.413 26.1951 128.988 27.0898L130.466 23.0637C128.915 22.1441 126.468 21.7216 124.433 21.7216C119.175 21.7216 115.953 24.7536 115.953 29.923C115.953 35.142 119.321 38 124.385 38C126.904 38 129.061 37.4532 130.733 36.5834Z" fill="white"/>
<path d="M148.406 31.1159V22.0944H143.657V31.0413C143.657 33.2283 143.003 33.9739 141.428 33.9739C139.78 33.9739 139.078 33.0047 139.078 30.9171V22.0944H134.305V31.5135C134.305 36.2106 137.333 38 141.355 38C145.498 38 148.406 35.9124 148.406 31.1159Z" fill="white"/>
<path d="M152.271 37.6272H164.095V33.8248H156.923V31.7372H162.593V27.9348H156.923V25.8969H164.095V22.0944H152.271V37.6272Z" fill="white"/>
<path d="M172.476 37.6272V33.0295L173.809 32.9052L176.522 37.6272H181.804L178.049 31.6626C180.084 30.8425 181.005 29.1774 181.005 27.1892C181.005 24.0826 178.8 22.0944 174.56 22.0944H167.703V37.6272H172.476ZM174.027 29.5253L172.379 29.5502V25.8223H173.688C175.432 25.8223 176.062 26.3691 176.062 27.5371C176.062 28.8046 175.48 29.3513 174.027 29.5253Z" fill="white"/>
<path d="M190.41 34.0485C188.471 34.0485 186.485 33.4271 184.837 32.607L184.11 36.6083C185.491 37.3787 187.817 38 190.337 38C194.723 38 197 35.8627 197 32.7561C197 29.7987 194.48 28.6803 192.082 28.0093C190.579 27.6117 189.126 27.2389 189.126 26.5182C189.126 25.8969 189.634 25.698 190.579 25.698C192.154 25.698 194.189 26.2448 195.91 27.1146L196.661 23.1134C195.207 22.3429 193.269 21.7465 190.555 21.7465C186.412 21.7465 184.353 23.7098 184.353 26.7667C184.353 29.9478 187.163 30.9916 189.392 31.6626C191.161 32.2094 192.227 32.3833 192.227 33.1538C192.227 33.8248 191.5 34.0485 190.41 34.0485Z" fill="white"/>
<path d="M106.206 4.6827L102.136 4.07598L100.316 0.292674C100.267 0.189089 100.185 0.105235 100.084 0.0542648C99.8307 -0.0739831 99.5229 0.0328902 99.3963 0.292674L97.577 4.07598L93.5071 4.6827C93.3949 4.69914 93.2923 4.7534 93.2138 4.83561C93.1188 4.93572 93.0665 5.0704 93.0683 5.21006C93.0701 5.34972 93.1259 5.48294 93.2234 5.58043L96.168 8.5252L95.4723 12.6834C95.456 12.7801 95.4664 12.8796 95.5024 12.9706C95.5384 13.0615 95.5986 13.1403 95.676 13.198C95.7534 13.2557 95.8451 13.2899 95.9405 13.2969C96.036 13.3039 96.1315 13.2833 96.2161 13.2375L99.8564 11.2743L103.497 13.2375C103.596 13.2917 103.711 13.3098 103.822 13.2901C104.101 13.2408 104.288 12.9695 104.24 12.6834L103.545 8.5252L106.489 5.58043C106.569 5.49986 106.622 5.39464 106.638 5.27954C106.682 4.99181 106.486 4.72545 106.206 4.6827Z" fill="#C7C7C7"/>
<path d="M124.512 5.42739L121.45 4.9665L120.082 2.09252C120.044 2.01384 119.983 1.95014 119.907 1.91142C119.716 1.81399 119.485 1.89518 119.39 2.09252L118.021 4.9665L114.959 5.42739C114.875 5.43988 114.798 5.4811 114.739 5.54355C114.667 5.6196 114.628 5.72191 114.629 5.828C114.63 5.93409 114.672 6.03529 114.746 6.10935L116.961 8.34633L116.438 11.5051C116.425 11.5786 116.433 11.6541 116.46 11.7232C116.487 11.7923 116.533 11.8522 116.591 11.896C116.649 11.9398 116.718 11.9659 116.79 11.9712C116.862 11.9765 116.933 11.9608 116.997 11.926L119.736 10.4347L122.474 11.926C122.549 11.9672 122.636 11.981 122.719 11.966C122.929 11.9285 123.07 11.7224 123.034 11.5051L122.51 8.34633L124.726 6.10935C124.786 6.04815 124.826 5.96821 124.838 5.88078C124.87 5.6622 124.723 5.45986 124.512 5.42739Z" fill="#C7C7C7"/>
<path d="M84.7536 5.80154L81.6918 5.34065L80.3232 2.46667C80.2858 2.38798 80.2243 2.32428 80.1483 2.28556C79.9578 2.18814 79.7263 2.26933 79.631 2.46667L78.2623 5.34065L75.2006 5.80154C75.1162 5.81403 75.039 5.85524 74.9799 5.9177C74.9085 5.99374 74.8691 6.09605 74.8705 6.20215C74.8718 6.30824 74.9138 6.40944 74.9872 6.4835L77.2024 8.72048L76.679 11.8792C76.6667 11.9527 76.6746 12.0283 76.7017 12.0974C76.7287 12.1665 76.774 12.2263 76.8322 12.2701C76.8905 12.314 76.9594 12.34 77.0312 12.3453C77.103 12.3506 77.1749 12.335 77.2385 12.3002L79.9771 10.8088L82.7156 12.3002C82.7904 12.3414 82.8772 12.3551 82.9604 12.3401C83.1702 12.3027 83.3113 12.0966 83.2752 11.8792L82.7518 8.72048L84.967 6.4835C85.0273 6.4223 85.0671 6.34236 85.0791 6.25493C85.1117 6.03635 84.9646 5.83401 84.7536 5.80154Z" fill="#C7C7C7"/>
</svg>
