<svg width="171" height="33" viewBox="0 0 171 33" fill="none" xmlns="http://www.w3.org/2000/svg">
<g clip-path="url(#clip0_37_543)">
<path d="M9.86691 0C3.95565 0 0 4.89219 0 11.7412C0 18.5902 3.95565 23.4824 9.86691 23.4824C13.3336 23.4824 16.1337 21.7925 17.8671 18.9905V22.8598H24.534V0.622642H17.8671V4.49191C16.1337 1.69003 13.3336 0 9.86691 0ZM17.8671 11.7412C17.8671 14.9434 15.4671 17.4339 12.2669 17.4339C9.06688 17.4339 6.66683 14.9434 6.66683 11.7412C6.66683 8.53908 9.06688 6.04852 12.2669 6.04852C15.4671 6.04852 17.8671 8.53908 17.8671 11.7412Z" fill="white"/>
<path d="M38.3397 6.40431C40.5175 6.40431 41.9399 7.82749 41.9399 10.8073V22.8598H48.6067V11.0741C48.6067 8.09434 50.2068 6.40431 52.6512 6.40431C54.829 6.40431 56.2513 7.82749 56.2513 10.8073V22.8598H62.9182V10.4515C62.9182 2.75741 58.8292 0 54.429 0C51.1845 0 48.4733 1.82345 47.3622 4.26954C45.7621 1.24529 43.1843 0 40.6954 0C38.1176 0 35.4953 1.3787 34.2952 4.04717V0.622642H27.6284V22.8598H34.2952V11.0741C34.2952 8.09434 35.8953 6.40431 38.3397 6.40431Z" fill="white"/>
<path d="M74.7592 0C68.8478 0 64.8922 4.89219 64.8922 11.7412C64.8922 18.5902 68.8478 23.4824 74.7592 23.4824C78.2258 23.4824 81.0259 21.7925 82.7593 18.9905V22.8598H89.4262V0.622642H82.7593V4.49191C81.0259 1.69003 78.2258 0 74.7592 0ZM82.7593 11.7412C82.7593 14.9434 80.3593 17.4339 77.1591 17.4339C73.9591 17.4339 71.559 14.9434 71.559 11.7412C71.559 8.53908 73.9591 6.04852 77.1591 6.04852C80.3593 6.04852 82.7593 8.53908 82.7593 11.7412Z" fill="white"/>
<path d="M110.21 0.62262H91.7206V6.13744H108.788V6.22639L91.7206 11.8746V22.8598H110.21V17.345H93.1428V17.256L110.21 11.6078V0.62262Z" fill="white"/>
<path d="M112.532 22.8598H119.198V0.62262H112.532V22.8598Z" fill="white"/>
<path d="M133.411 6.40431C135.811 6.40431 137.5 7.82749 137.5 10.8073V22.8598H144.166V10.4515C144.166 2.31266 139.277 0 135.767 0C133.01 0 130.254 1.3787 128.966 4.13612V0.622642H122.299V22.8598H128.966V11.0741C128.966 8.09434 130.877 6.40431 133.411 6.40431Z" fill="white"/>
<path d="M170.642 21.9703V0.622642H163.974V4.53639C162.374 1.86792 159.442 0 155.975 0C150.018 0 146.107 4.89219 146.107 11.3854C146.107 17.8787 150.018 22.7709 155.975 22.7709C159.442 22.7709 162.374 20.9029 163.974 18.2345V22.2372C163.974 26.0621 160.863 27.2628 158.241 27.2628C155.619 27.2628 152.996 26.1954 151.219 24.283L146.953 28.5081C149.93 31.3544 154.108 33 158.241 33C164.286 33 170.642 29.6644 170.642 21.9703ZM163.974 11.3854C163.974 14.5876 161.574 16.9893 158.374 16.9893C155.175 16.9893 152.775 14.5876 152.775 11.3854C152.775 8.18329 155.175 5.78167 158.374 5.78167C161.574 5.78167 163.974 8.18329 163.974 11.3854Z" fill="white"/>
<path d="M144.447 26.4067H0V32.6609H144.447V26.4067Z" fill="white"/>
</g>
<defs>
<clipPath id="clip0_37_543">
<rect width="171" height="33" fill="white"/>
</clipPath>
</defs>
</svg>
