<svg width="102" height="24" viewBox="0 0 102 24" fill="none" xmlns="http://www.w3.org/2000/svg">
<g clip-path="url(#clip0_37_533)">
<path d="M1.45898 0L3.34018 21.0975L11.7821 23.4416L20.246 21.0945L22.1301 0H1.46045H1.45898ZM18.0352 6.90063H8.13399L8.36987 9.55101H17.8007L17.0902 17.4948L11.7821 18.9658L6.48136 17.4948L6.11948 13.4306H8.7171L8.90171 15.4964L11.7836 16.2729L11.7894 16.2714L14.6727 15.4935L14.9716 12.1384H6.00373L5.30634 4.31326H18.2681L18.0366 6.90063H18.0352Z" fill="#B8B8B8"/>
</g>
<path d="M40.3926 0L42.2672 20.7107L50.7069 23.4416L59.1466 20.7107L61.0212 0H40.3926ZM57.2127 4.18601L56.9548 6.66078L50.7447 9.24522H56.7348L56.0471 16.9165L50.7722 18.4184L45.4646 16.8905L45.1208 13.0235H47.7476L47.9195 15.0278L50.7447 15.7235L53.6834 14.9181L53.882 11.6949L44.9378 11.6689L44.7444 9.24605L51.116 6.66161H44.514L44.202 4.18684L57.2127 4.18601Z" fill="#B8B8B8"/>
<g clip-path="url(#clip1_37_533)">
<path fill-rule="evenodd" clip-rule="evenodd" d="M77.8993 0H101.341V23.4416H77.8993V0ZM95.8195 19.6519C94.7323 19.6519 94.118 19.0854 93.6462 18.3138L91.8559 19.354C92.5025 20.6316 93.824 21.6064 95.8702 21.6064C97.9624 21.6064 99.5203 20.5202 99.5203 18.5365C99.5203 16.6973 98.4635 15.8798 96.5921 15.0759L96.0412 14.8405C95.0957 14.4303 94.6864 14.1636 94.6864 13.5024C94.6864 12.9681 95.0967 12.5589 95.7413 12.5589C96.3733 12.5589 96.7806 12.8255 97.1586 13.5024L98.8737 12.4016C98.148 11.125 97.142 10.6376 95.7413 10.6376C93.7742 10.6376 92.5152 11.8957 92.5152 13.5483C92.5152 15.3406 93.57 16.1894 95.1602 16.8663L95.711 17.1026C96.7161 17.5422 97.3148 17.8098 97.3148 18.5648C97.3148 19.1958 96.7317 19.6519 95.8195 19.6519ZM87.2828 19.6373C86.5258 19.6373 86.2103 19.1196 85.8646 18.5042L84.0713 19.5904C84.5909 20.6902 85.6126 21.6025 87.3756 21.6025C89.3281 21.6025 90.6652 20.5642 90.6652 18.2835V10.7626H88.4627V18.2542C88.4627 19.355 88.0056 19.6373 87.2818 19.6373H87.2828Z" fill="#B8B8B8"/>
</g>
<defs>
<clipPath id="clip0_37_533">
<rect width="23.4416" height="23.4416" fill="white" transform="translate(0.072998)"/>
</clipPath>
<clipPath id="clip1_37_533">
<rect width="23.4416" height="23.4416" fill="white" transform="translate(77.8993)"/>
</clipPath>
</defs>
</svg>
